<?xml version="1.0" encoding="utf-8"?>
<!-- Generator: Adobe Illustrator 16.0.0, SVG Export Plug-In . SVG Version: 6.00 Build 0)  -->
<!DOCTYPE svg PUBLIC "-//W3C//DTD SVG 1.1//EN" "http://www.w3.org/Graphics/SVG/1.1/DTD/svg11.dtd">
<svg version="1.1"
	 id="svg3427" xmlns:dc="http://purl.org/dc/elements/1.1/" xmlns:cc="http://web.resource.org/cc/" xmlns:rdf="http://www.w3.org/1999/02/22-rdf-syntax-ns#" xmlns:svg="http://www.w3.org/2000/svg" xmlns:sodipodi="http://sodipodi.sourceforge.net/DTD/sodipodi-0.dtd" xmlns:inkscape="http://www.inkscape.org/namespaces/inkscape" sodipodi:docbase="F:\Documents and Settings\Administrator\My Documents\My Pictures" sodipodi:version="0.32" inkscape:version="0.45.1" inkscape:output_extension="org.inkscape.output.svg.inkscape" sodipodi:docname="BSicon TRAM.svg"
	 xmlns="http://www.w3.org/2000/svg" xmlns:xlink="http://www.w3.org/1999/xlink" x="0px" y="0px" width="500px" height="500px"
	 viewBox="0 0 500 500" enable-background="new 0 0 500 500" xml:space="preserve">
<g>
	
		<sodipodi:namedview  height="500px" width="500px" inkscape:cy="264.17989" guidetolerance="10" gridtolerance="10000" objecttolerance="10" borderopacity="1.0" pagecolor="#ffffff" bordercolor="#666666" inkscape:zoom="1.1486984" inkscape:cx="375" id="base" inkscape:current-layer="layer1" inkscape:window-y="52" inkscape:window-x="0" inkscape:pageopacity="0.0" inkscape:pageshadow="2" inkscape:window-width="1280" inkscape:window-height="943" showguides="true" inkscape:document-units="px" inkscape:guide-bbox="true">
		<sodipodi:guide  id="guide4448" position="0" orientation="horizontal"></sodipodi:guide>
		<sodipodi:guide  id="guide4450" position="500" orientation="horizontal"></sodipodi:guide>
	</sodipodi:namedview>
	<path id="path4420" d="M243.636,49.493h11.652V7.812h-11.652V49.493z"/>
	<path id="path4422" d="M179.915,0.031l-0.872,0.031l-0.872,0.063L177.3,0.188l-0.843,0.125l-0.843,0.094l-0.843,0.156l-0.784,0.156
		l-0.813,0.218l-0.756,0.219l-0.756,0.25l-0.726,0.25l-0.727,0.313l-0.697,0.344l-0.669,0.344l-0.639,0.375l-0.61,0.438l-0.61,0.438
		l-0.552,0.5l-0.553,0.5l-0.494,0.531l-0.493,0.594l-0.437,0.594l-0.436,0.656l-0.378,0.688l-0.349,0.719l-0.319,0.749l-0.291,0.781
		l-0.232,0.844l-0.203,0.844l-0.175,0.906l-0.116,0.938l-0.028,0.469l0.028,0.469l0.029,0.438l0.116,0.438l0.116,0.406l0.175,0.406
		l0.203,0.374l0.232,0.375l0.291,0.313l0.29,0.313l0.319,0.25l0.35,0.25l0.349,0.188l0.406,0.188l0.407,0.125l0.406,0.063
		l0.669,0.063h0.609l0.582-0.094l0.493-0.094l0.494-0.188l0.437-0.219l0.377-0.281l0.378-0.281l0.349-0.344l0.319-0.375l0.291-0.406
		l0.319-0.405l0.553-0.906l0.581-0.938l0.29-0.5l0.291-0.469l0.349-0.469l0.349-0.469l0.378-0.438l0.406-0.438l0.437-0.406
		l0.465-0.375l0.522-0.344l0.581-0.313l0.61-0.281l0.697-0.25l0.727-0.188l0.813-0.156l0.872-0.094l0.93-0.031h137.353l0.959,0.031
		l0.872,0.094l0.813,0.156l0.727,0.188l0.697,0.219l0.639,0.281l0.581,0.344l0.523,0.344l0.494,0.375l0.436,0.406l0.407,0.438
		l0.406,0.438l0.349,0.469l0.32,0.438l0.319,0.5l0.319,0.469l0.552,0.938l0.582,0.906l0.29,0.406l0.291,0.405l0.319,0.375
		l0.349,0.344l0.378,0.281l0.378,0.281l0.406,0.219l0.465,0.188l0.494,0.125l0.552,0.063l0.581,0.031l0.64-0.063l0.436-0.063
		l0.407-0.125l0.407-0.188l0.349-0.188l0.349-0.25l0.319-0.25l0.29-0.313l0.291-0.313l0.232-0.375l0.203-0.374l0.175-0.406
		l0.116-0.406l0.087-0.438l0.059-0.438l0.028-0.469l-0.028-0.469l-0.116-0.938l-0.175-0.906l-0.203-0.844l-0.232-0.844l-0.291-0.781
		l-0.319-0.749l-0.349-0.719l-0.378-0.688l-0.406-0.656l-0.466-0.594l-0.465-0.594l-0.522-0.531l-0.553-0.5l-0.552-0.5l-0.581-0.438
		l-0.64-0.438l-0.639-0.375l-0.668-0.344l-0.698-0.344l-0.697-0.313l-0.755-0.25l-0.756-0.25l-0.756-0.219l-0.784-0.218
		l-0.813-0.156l-0.843-0.156l-0.813-0.094l-0.872-0.125l-0.871-0.063l-0.872-0.063l-0.872-0.031h-0.9H180.815H179.915z"/>
	<path id="path4424" d="M174.161,305.961l0.029,0.406v0.406l0.029,0.406l0.058,0.375l0.059,0.344l0.087,0.313l0.087,0.313
		l0.116,0.313l0.088,0.25l0.145,0.281l0.146,0.25l0.146,0.219l0.146,0.219l0.174,0.188l0.175,0.188l0.203,0.156l0.203,0.156
		l0.204,0.125l0.203,0.156l0.232,0.094l0.465,0.219l0.523,0.125l0.522,0.125l0.553,0.063l0.552,0.063h0.61h0.581l0.581-0.031
		l0.552-0.063l0.523-0.125l0.494-0.156l0.493-0.188l0.232-0.094l0.204-0.125l0.203-0.156l0.203-0.156l0.204-0.156l0.174-0.188
		l0.175-0.188l0.174-0.219l0.146-0.219l0.146-0.25l0.116-0.25l0.116-0.281l0.116-0.281l0.087-0.313l0.059-0.344l0.087-0.344
		l0.029-0.344l0.058-0.406v-0.406l0.029-0.438l-0.087-119.922v-0.438l-0.029-0.406l-0.029-0.375l-0.029-0.375l-0.087-0.344
		l-0.059-0.344l-0.087-0.313l-0.116-0.313l-0.116-0.281l-0.116-0.281l-0.146-0.25l-0.145-0.219l-0.175-0.219l-0.146-0.219
		l-0.203-0.188l-0.174-0.188l-0.204-0.155l-0.203-0.156l-0.232-0.125l-0.203-0.125l-0.494-0.219l-0.494-0.188l-0.523-0.125
		l-0.552-0.094l-0.581-0.063h-0.581h-0.61l-0.552,0.063l-0.553,0.063l-0.552,0.125l-0.494,0.156l-0.465,0.219l-0.232,0.125
		l-0.232,0.156l-0.203,0.125l-0.203,0.187l-0.175,0.156l-0.203,0.188l-0.146,0.219l-0.175,0.219l-0.145,0.25l-0.146,0.25
		l-0.116,0.25l-0.116,0.281l-0.116,0.313l-0.087,0.313l-0.088,0.344l-0.058,0.344l-0.059,0.375l-0.028,0.375l-0.029,0.438v0.406
		L174.161,305.961z"/>
	<path id="path4426" d="M179.334,246.406l-0.204,0.219l-0.232,0.25l-0.174,0.25l-0.204,0.25l-0.145,0.25l-0.175,0.25l-0.146,0.281
		l-0.232,0.563l-0.174,0.594l-0.146,0.594l-0.087,0.625l-0.029,0.625l0.029,0.625l0.087,0.624l0.146,0.594l0.087,0.313l0.116,0.313
		l0.116,0.281l0.116,0.313l0.175,0.281l0.145,0.281l0.175,0.281l0.203,0.25l65.263,87.208l0.203,0.25l0.203,0.25l0.232,0.219
		l0.232,0.219l0.232,0.219l0.232,0.188l0.262,0.156l0.262,0.188l0.522,0.28l0.523,0.219l0.581,0.156l0.552,0.125l0.582,0.031h0.581
		l0.29-0.031l0.262-0.031l0.291-0.063l0.29-0.063l0.262-0.094l0.29-0.094l0.262-0.125l0.262-0.156l0.262-0.125l0.262-0.187
		l0.232-0.188l0.261-0.188l0.232-0.219l0.204-0.219l0.203-0.219l0.203-0.25l0.175-0.25l0.174-0.25l0.146-0.281l0.146-0.281
		l0.232-0.563l0.203-0.563l0.116-0.625l0.087-0.594l0.029-0.625l-0.029-0.625l-0.087-0.625l-0.116-0.625l-0.203-0.594l-0.262-0.593
		l-0.146-0.281l-0.145-0.281l-0.175-0.281l-0.203-0.281l-65.263-87.177l-0.203-0.25l-0.203-0.25l-0.232-0.25l-0.232-0.219
		l-0.465-0.375l-0.523-0.344l-0.522-0.281l-0.523-0.25L184.506,245l-0.552-0.094l-0.582-0.063h-0.581l-0.552,0.094l-0.581,0.125
		l-0.262,0.094l-0.29,0.094l-0.262,0.125l-0.262,0.125l-0.262,0.156l-0.262,0.156L179.827,246l-0.261,0.188L179.334,246.406z"/>
	<path d="M411.674,395.7L398.656,90.332v0.563l-0.059-2.25l-0.146-2.218l-0.261-2.188l-0.349-2.156l-0.465-2.125l-0.553-2.093
		l-0.639-2.031l-0.727-2l-0.813-1.938l-0.931-1.905l-0.958-1.813l-1.075-1.781l-1.134-1.719l-1.22-1.655l-1.279-1.594l-1.365-1.531
		l-1.395-1.469l-1.482-1.375l-1.569-1.312l-1.598-1.219l-1.656-1.125l-1.686-1.063l-1.772-0.969l-1.802-0.906l-1.859-0.781
		l-1.889-0.688L368.03,48.4l-1.977-0.469l-2.005-0.405l-2.034-0.281l-2.063-0.156l-2.092-0.063H142.17l-2.093,0.063l-2.092,0.156
		l-2.034,0.281l-2.005,0.405L131.97,48.4l-1.918,0.594l-1.918,0.688l-1.83,0.781l-1.831,0.906l-1.743,0.969l-1.714,1.063
		l-1.656,1.125l-1.599,1.219l-1.54,1.312l-1.481,1.375l-1.424,1.469l-1.337,1.531l-1.308,1.594l-1.191,1.655l-1.162,1.719
		l-1.046,1.781l-0.988,1.813l-0.9,1.905l-0.813,1.938l-0.727,2l-0.64,2.031l-0.552,2.093l-0.465,2.125l-0.349,2.156l-0.262,2.188
		l-0.175,2.218l-0.058,2.25v-0.563L88.298,395.982v0.313l0.059,2.25l0.145,2.218l0.262,2.188l0.378,2.156l0.436,2.124l0.553,2.094
		l0.639,2.031l0.756,2l0.813,1.937l0.9,1.875l0.988,1.844l1.046,1.781l1.134,1.719l1.22,1.655l1.278,1.594l1.366,1.531l1.424,1.438
		l1.481,1.406l1.54,1.28l1.599,1.25l1.656,1.125l1.714,1.063l1.744,0.969l1.801,0.875l1.86,0.781l1.889,0.688l1.946,0.593l1.977,0.5
		l2.005,0.375l2.033,0.281l2.063,0.188l2.092,0.063h241.813l2.093-0.063l2.063-0.188l2.034-0.281l2.005-0.375l1.976-0.5l1.947-0.593
		l1.889-0.688l1.859-0.781l1.802-0.875l1.772-0.969l1.686-1.063l1.656-1.125l1.598-1.25l1.54-1.28l1.482-1.406l1.424-1.438
		l1.365-1.531l1.278-1.594l1.221-1.655l1.133-1.719l1.047-1.781l0.987-1.844l0.901-1.875l0.813-1.937l0.755-2l0.64-2.031
		l0.552-2.094l0.437-2.124l0.377-2.156l0.262-2.188l0.146-2.218l0.058-2.25L411.674,395.7z M138.682,319.991l0.262-6.719
		l0.378-10.311l0.494-13.342l0.581-15.717l0.639-17.529l0.697-18.717l0.727-19.31l0.697-19.279l0.697-18.685l0.669-17.467
		l0.581-15.623l0.494-13.217l0.378-10.187l0.232-6.562l0.087-2.313v-0.281v-0.281l0.029-0.531l0.087-0.5l0.116-0.5l0.174-0.469
		l0.175-0.438l0.262-0.438l0.262-0.406l0.319-0.375l0.349-0.312l0.349-0.313l0.406-0.25l0.437-0.219l0.436-0.188l0.436-0.125
		l0.494-0.063l0.494-0.031h197.85l0.494,0.031l0.465,0.063l0.465,0.125l0.436,0.188l0.407,0.219l0.406,0.25l0.349,0.313l0.349,0.312
		l0.32,0.375l0.261,0.406l0.262,0.438l0.175,0.438l0.174,0.469l0.116,0.5l0.087,0.5v0.531v0.281l0.029,0.281l0.087,2.313
		l0.233,6.562l0.377,10.187l0.494,13.186l0.581,15.654l0.669,17.467l0.668,18.685l0.727,19.279l0.727,19.31l0.697,18.717
		l0.639,17.529l0.581,15.717l0.494,13.342l0.378,10.311l0.262,6.719l0.087,2.499l-0.029,0.531l-0.058,0.5l-0.116,0.5l-0.175,0.469
		l-0.203,0.438l-0.232,0.438l-0.291,0.375l-0.29,0.375l-0.349,0.313l-0.378,0.313l-0.378,0.25l-0.406,0.219l-0.465,0.188
		l-0.437,0.125l-0.494,0.063l-0.465,0.031H143.361l-0.465-0.031l-0.494-0.063l-0.437-0.125l-0.436-0.188l-0.436-0.219l-0.378-0.25
		l-0.378-0.313l-0.349-0.313l-0.29-0.375l-0.291-0.375l-0.232-0.438l-0.203-0.438l-0.175-0.469l-0.116-0.5l-0.058-0.5l-0.029-0.531
		L138.682,319.991z M173.057,377.827l-0.146,1.313l-0.203,1.281l-0.32,1.281l-0.378,1.219l-0.493,1.155l-0.553,1.125l-0.668,1.031
		l-0.756,0.938l-0.813,0.875l-0.93,0.75l-1.017,0.625l-1.075,0.531l-1.191,0.375l-1.278,0.219l-1.337,0.094h-15.807l-1.366-0.094
		l-1.249-0.219l-1.191-0.375l-1.104-0.531l-0.988-0.625l-0.93-0.75l-0.813-0.875l-0.755-0.938l-0.669-1.031l-0.552-1.125
		l-0.494-1.155l-0.378-1.219l-0.319-1.281l-0.203-1.281l-0.146-1.313l-0.029-1.313l0.029-1.343l0.146-1.313l0.203-1.281l0.319-1.281
		l0.378-1.219l0.494-1.156l0.552-1.094l0.669-1.03l0.726-0.969l0.843-0.844l0.93-0.75l0.988-0.656l1.104-0.5l1.191-0.406
		l1.249-0.219l1.366-0.094h15.807l1.337,0.094l1.278,0.219l1.191,0.406l1.075,0.5l1.017,0.656l0.93,0.75l0.813,0.844l0.756,0.969
		l0.668,1.03l0.553,1.094l0.493,1.156l0.378,1.219l0.32,1.281l0.203,1.281l0.146,1.313l0.058,1.343L173.057,377.827z
		 M365.385,376.484v0.656l-0.059,0.625l-0.058,0.656l-0.116,0.625l-0.116,0.656l-0.146,0.625l-0.203,0.625l-0.203,0.625
		l-0.232,0.625l-0.233,0.594l-0.29,0.593l-0.291,0.594l-0.319,0.563l-0.349,0.531l-0.349,0.531l-0.378,0.531l-0.406,0.469
		l-0.407,0.469l-0.436,0.469l-0.465,0.406l-0.465,0.406l-0.465,0.375l-0.494,0.344l-0.523,0.313l-0.522,0.281l-0.523,0.25
		l-0.552,0.219l-0.553,0.188l-0.581,0.125l-0.552,0.094l-0.61,0.063l-0.581,0.031H338.13l-0.581-0.031l-0.581-0.063l-0.581-0.094
		l-0.581-0.125l-0.552-0.188l-0.553-0.219l-0.522-0.25l-0.523-0.281l-0.522-0.313l-0.494-0.344l-0.465-0.375l-0.465-0.406
		l-0.465-0.406l-0.437-0.469l-0.406-0.469l-0.407-0.469l-0.378-0.531l-0.349-0.531l-0.349-0.531l-0.319-0.563l-0.319-0.594
		l-0.262-0.593l-0.262-0.594l-0.232-0.625l-0.203-0.625l-0.175-0.625l-0.146-0.625l-0.145-0.656l-0.088-0.625l-0.087-0.656
		l-0.029-0.625l-0.028-0.656l0.028-0.625l0.029-0.655l0.087-0.625l0.088-0.656l0.145-0.625l0.146-0.625l0.175-0.656l0.203-0.594
		l0.232-0.625l0.262-0.594l0.262-0.594l0.319-0.594l0.319-0.563l0.349-0.531l0.349-0.53l0.378-0.531l0.407-0.469l0.406-0.469
		l0.437-0.469l0.465-0.406l0.465-0.406l0.465-0.375l0.494-0.344l0.522-0.313l0.523-0.281l0.522-0.25l0.553-0.219l0.552-0.156
		l0.581-0.156l0.581-0.094l0.581-0.063l0.581-0.031h15.778l0.581,0.031l0.61,0.063l0.552,0.094l0.581,0.156l0.553,0.156l0.552,0.219
		l0.523,0.25l0.522,0.281l0.523,0.313l0.494,0.344l0.465,0.375l0.465,0.406l0.465,0.406l0.436,0.469l0.407,0.469l0.406,0.469
		l0.378,0.531l0.349,0.53l0.349,0.531l0.319,0.563l0.291,0.594l0.29,0.594l0.233,0.594l0.232,0.625l0.203,0.594l0.203,0.656
		l0.146,0.625l0.116,0.625l0.116,0.656l0.058,0.625l0.059,0.655V376.484z"/>
	<path id="path4430" d="M138.188,412.261v1v1.562v2.063v2.438v2.781v3.03v3.156v3.249v3.25v3.125v2.968v2.719v2.375v1.968v1.469
		l-1.133,1.156l-1.627,1.656l-2.063,2.124l-2.383,2.438l-2.673,2.719l-2.848,2.937l-2.935,3l-2.964,3.063l-2.935,2.968l-2.79,2.875
		l-2.557,2.625l-2.296,2.343l-1.918,1.969l-1.452,1.5l-0.93,0.969l-0.349,0.344l-0.32,0.344l-0.29,0.344l-0.291,0.375l-0.262,0.374
		l-0.232,0.375l-0.232,0.406l-0.203,0.406l-0.175,0.406l-0.145,0.438l-0.146,0.406l-0.116,0.438l-0.087,0.438l-0.059,0.438
		l-0.058,0.438l-0.029,0.438l-0.029,0.438l0.029,0.469l0.029,0.469l0.058,0.438l0.059,0.469l0.116,0.438l0.116,0.437l0.145,0.438
		l0.175,0.438l0.174,0.406l0.204,0.438l0.232,0.406l0.262,0.375l0.261,0.406l0.291,0.375l0.319,0.344l0.349,0.375l0.349,0.313
		l0.378,0.313l0.378,0.281l0.378,0.281l0.378,0.219l0.406,0.219l0.407,0.219l0.436,0.156l0.407,0.156l0.436,0.156l0.436,0.094
		l0.437,0.094l0.465,0.063l0.436,0.063l0.436,0.031h0.465h0.437l0.465-0.063l0.436-0.063l0.436-0.063l0.437-0.094l0.436-0.125
		l0.436-0.156l0.407-0.156l0.436-0.188l0.407-0.219l0.377-0.219l0.407-0.25l0.378-0.281l0.349-0.281l0.378-0.313l0.349-0.344
		l36.524-37.401l0.291-0.344l0.29-0.344l0.291-0.375l0.261-0.375l0.232-0.375l0.204-0.375l0.203-0.406l0.203-0.406l0.146-0.438
		l0.146-0.406l0.116-0.438l0.087-0.438l0.087-0.469l0.059-0.438l0.029-0.468v-0.438v-41.308v-0.5l-0.029-0.469l-0.059-0.469
		l-0.087-0.469l-0.116-0.438l-0.116-0.438l-0.146-0.438l-0.174-0.438l-0.175-0.406l-0.203-0.406l-0.232-0.406l-0.262-0.374
		l-0.262-0.344l-0.261-0.375l-0.291-0.344l-0.319-0.313l-0.32-0.313l-0.349-0.281l-0.349-0.281l-0.377-0.281l-0.378-0.219
		l-0.378-0.25l-0.407-0.188l-0.406-0.188l-0.436-0.188l-0.437-0.125l-0.436-0.125l-0.436-0.125l-0.466-0.063l-0.465-0.063
		l-0.493-0.031l-0.465-0.031l-0.494,0.031l-0.465,0.031l-0.465,0.063l-0.466,0.063l-0.436,0.125l-0.436,0.125l-0.436,0.125
		l-0.437,0.188l-0.406,0.188l-0.407,0.188l-0.378,0.25l-0.378,0.219l-0.377,0.281l-0.349,0.281l-0.349,0.281l-0.32,0.313
		l-0.29,0.313l-0.291,0.344l-0.29,0.375l-0.262,0.344l-0.232,0.374l-0.232,0.406l-0.203,0.406l-0.175,0.406l-0.175,0.438
		l-0.145,0.438l-0.146,0.438l-0.087,0.438l-0.088,0.469l-0.058,0.469l-0.029,0.469l-0.029,0.5V412.261z"/>
	<path id="path4432" d="M343.157,453.225l0.029,0.438l0.028,0.468l0.059,0.438l0.058,0.469l0.116,0.438l0.116,0.438l0.146,0.406
		l0.146,0.438l0.174,0.406l0.204,0.406l0.232,0.375l0.232,0.375l0.262,0.375l0.261,0.375l0.291,0.344l0.319,0.344l36.496,37.401
		l0.349,0.344l0.378,0.313l0.349,0.281l0.406,0.281l0.378,0.25l0.407,0.219l0.406,0.219l0.407,0.188l0.436,0.156l0.407,0.156
		l0.436,0.125l0.436,0.094l0.465,0.063l0.437,0.063l0.436,0.063h0.465h0.436l0.437-0.031l0.465-0.063l0.436-0.063l0.436-0.094
		l0.437-0.094l0.436-0.156l0.436-0.156l0.407-0.156l0.406-0.219l0.407-0.219l0.407-0.219l0.377-0.281l0.378-0.281l0.378-0.313
		l0.349-0.313l0.319-0.375l0.32-0.344l0.29-0.375l0.291-0.406l0.232-0.375l0.232-0.406l0.203-0.438l0.203-0.406l0.146-0.438
		l0.146-0.438l0.116-0.437l0.116-0.438l0.058-0.469l0.059-0.438l0.029-0.469l0.028-0.469l-0.028-0.438l-0.029-0.438l-0.059-0.438
		l-0.058-0.438l-0.087-0.438l-0.116-0.438l-0.146-0.406l-0.146-0.438l-0.174-0.406l-0.204-0.406l-0.232-0.406l-0.232-0.375
		l-0.262-0.374l-0.261-0.375l-0.32-0.344l-0.319-0.344l-0.319-0.344l-0.93-0.969l-1.482-1.5l-1.918-1.969l-2.267-2.343l-2.586-2.625
		l-2.789-2.875l-2.906-2.968l-2.992-3.063l-2.935-3l-2.848-2.937l-2.674-2.719l-2.383-2.438l-2.063-2.124l-1.627-1.656l-1.134-1.156
		v-1.469v-1.968v-2.375v-2.719v-2.968v-3.125v-3.25v-3.249v-3.156v-3.03v-2.781v-2.438v-2.063v-1.562v-1v-0.344l-0.029-0.5
		l-0.028-0.469l-0.059-0.469l-0.087-0.469l-0.087-0.438l-0.146-0.438l-0.146-0.438l-0.146-0.438l-0.203-0.406l-0.203-0.406
		l-0.232-0.406l-0.232-0.374l-0.262-0.344l-0.262-0.375l-0.319-0.344l-0.291-0.313l-0.319-0.313l-0.349-0.281l-0.349-0.281
		l-0.378-0.281l-0.378-0.219l-0.378-0.25l-0.406-0.188l-0.407-0.188l-0.436-0.188l-0.436-0.125l-0.437-0.125l-0.436-0.125
		l-0.465-0.063l-0.465-0.063l-0.465-0.031l-0.494-0.031l-0.465,0.031l-0.494,0.031l-0.465,0.063l-0.436,0.063l-0.465,0.125
		l-0.437,0.125l-0.436,0.125l-0.436,0.188l-0.407,0.188l-0.406,0.188l-0.378,0.25l-0.378,0.219l-0.378,0.281l-0.349,0.281
		l-0.319,0.281l-0.349,0.313l-0.291,0.313l-0.29,0.344l-0.291,0.375l-0.262,0.344l-0.232,0.374l-0.232,0.406l-0.203,0.406
		l-0.175,0.406l-0.174,0.438l-0.146,0.438l-0.146,0.438l-0.087,0.438l-0.087,0.469l-0.059,0.469l-0.028,0.469l-0.029,0.5V453.225z"
		/>
</g>
</svg>
